# xmcd CD database file
#
# Track frame offsets:
#	150
#	14887
#	31550
#	48982
#	64400
#	80887
#	95882
#	114565
#	130232
#	147552
#
# Disc length: 2172 seconds
#
# Revision: 2
# Processed by: cddbd v1.4PL0 Copyright (c) Steve Scherf et al.
# Submitted via: CDex 1.50Beta7
#
DISCID=96087a0a
DTITLE=Jo Dee Messina - I'm Alright
DYEAR=1998
DGENRE=Country
TTITLE0=I'm Alright
TTITLE1=Stand Beside Me
TTITLE2=Even God Must Get the Blues
TTITLE3=No Time For Tears
TTITLE4=Lesson in Leavin'
TTITLE5=Bye, Bye
TTITLE6=Silver Thunderbird
TTITLE7=I know a heartache
TTITLE8=Because you love me
TTITLE9=Cover me
EXTD=YEAR: 1998
EXTT0=
EXTT1=
EXTT2=
EXTT3=
EXTT4=
EXTT5=
EXTT6=
EXTT7=
EXTT8=
EXTT9=
PLAYORDER=
